<svg transform="scale(1)" version="1.1" id="_x30_601_x5F_Wishlist_1" xmlns="http://www.w3.org/2000/svg" xmlns:xlink="http://www.w3.org/1999/xlink" x="0px" y="0px" viewBox="0 0 500 500" xml:space="preserve" class="show_show__wrapper__graphic__5Waiy "><title>React</title><style type="text/css">
	.st0{fill:#FFFFFF;}
	.st1{fill:#555555;}
	.st2{fill:#d0473e;}
</style><g id="give"><rect class="st0" x="286.1" y="288" width="137" height="28.6"></rect><path class="st1" d="M423.1,317.1h-137c-0.3,0-0.5-0.2-0.5-0.5V288c0-0.3,0.2-0.5,0.5-0.5h137c0.3,0,0.5,0.2,0.5,0.5v28.5
		C423.6,316.9,423.4,317.1,423.1,317.1z M286.6,316h136v-27.5h-136L286.6,316z"></path><polyline class="st0" points="410.1,439.4 410.1,316.6 286.1,316.6 286.1,439.4 	"></polyline><path class="st1" d="M410.1,439.9c-0.3,0-0.5-0.2-0.5-0.5V317.1h-123v122.3c0,0.3-0.2,0.5-0.5,0.5c-0.3,0-0.5-0.2-0.5-0.5V316.6
		c0-0.3,0.2-0.5,0.5-0.5h124c0.3,0,0.5,0.2,0.5,0.5v122.8C410.6,439.7,410.4,439.9,410.1,439.9z"></path><rect class="st2" x="319.8" y="288" width="37.8" height="28.6"></rect><path class="st1" d="M357.6,317.1h-37.8c-0.3,0-0.5-0.2-0.5-0.5V288c0-0.3,0.2-0.5,0.5-0.5h37.8c0.3,0,0.5,0.2,0.5,0.5v28.5
		C358.1,316.9,357.9,317.1,357.6,317.1z M320.3,316h36.8v-27.5h-36.8L320.3,316z"></path><polyline class="st2" points="324.7,439.4 324.7,316.6 352.7,316.6 352.7,439.4 	"></polyline><path class="st1" d="M352.7,439.9c-0.3,0-0.5-0.2-0.5-0.5V317.1h-26.9v122.3c0,0.3-0.2,0.5-0.5,0.5s-0.5-0.2-0.5-0.5V316.6
		c0-0.3,0.2-0.5,0.5-0.5h27.9c0.3,0,0.5,0.2,0.5,0.5v122.8C353.2,439.7,352.9,439.9,352.7,439.9z"></path><path class="st2" d="M364,288c0,0,61.7-12,65.3-24.9c3.6-12.9-9-25.5-17.4-24.7c-8.4,0.7-37.9,13.1-54.3,28.7c0,0-2-15.8-12.6-6.6
		c0,0-8.6-4.3-13.3,4.5c0,0-25.6-20.4-42.3-12.4c-16.7,8.1,1.8,34.1,13.3,35.5L364,288z"></path><path class="st1" d="M364,288.5h-61.3c-8.1-1-18.6-13-20.2-23c-0.7-4.3-0.1-10.2,6.7-13.5c6.9-3.3,16.6-2.3,27.9,3.2
		c5.1,2.5,10,5.5,14.5,8.9c4.4-7.5,11.7-5,13.3-4.3c2.9-2.5,5.6-3.3,7.8-2.4c3.5,1.3,4.9,6.4,5.3,8.6c16.3-15,44.9-27.4,53.9-28.2
		c4.2-0.4,9.5,2.5,13.4,7.2c4.6,5.5,6.2,12.2,4.5,18.3c-3.6,13.1-63.1,24.8-65.7,25.3L364,288.5z M298.2,251.1c-3,0-5.9,0.6-8.5,1.8
		c-6.3,3-6.8,8.5-6.2,12.4c1.6,9.6,11.6,21.1,19.3,22.1h61.2c2-0.4,61.4-12.2,64.8-24.5c1.6-5.7,0-12.1-4.3-17.3
		c-3.7-4.4-8.6-7.1-12.5-6.8c-8.8,0.8-38.3,13.6-54,28.5c-0.2,0.2-0.5,0.2-0.7,0c-0.1-0.1-0.1-0.2-0.1-0.3c0-0.1-1-7.3-4.8-8.8
		c-1.9-0.7-4.2,0.1-7,2.5c-0.2,0.1-0.4,0.2-0.6,0.1c-0.3-0.2-8.2-4-12.6,4.2c-0.1,0.1-0.2,0.2-0.4,0.3c-0.2,0-0.3,0-0.4-0.1
		C331.2,265.1,313.4,251.1,298.2,251.1z"></path><path class="st1" d="M351.5,288.5h-0.1c-0.1,0-0.3-0.1-0.3-0.2c-0.1-0.2-10.5-15.6-19.6-23c-0.2-0.2-0.3-0.5-0.1-0.7
		c0.2-0.2,0.5-0.3,0.7-0.1c8.4,6.8,17.7,20.1,19.5,22.8c1.7-1.4,7.7-7.5,5.5-20.1c0-0.3,0.2-0.6,0.4-0.6c0.3,0,0.6,0.2,0.6,0.4
		c2.6,15.2-6,21.2-6.3,21.5C351.7,288.5,351.6,288.6,351.5,288.5z"></path><path class="st1" d="M350,283.9c-0.3,0-0.5-0.2-0.5-0.5c-0.2-6.8-1.4-13.5-3.6-20c-0.1-0.3,0.1-0.6,0.3-0.7
		c0.3-0.1,0.6,0.1,0.7,0.3l0,0c2.2,6.6,3.4,13.4,3.6,20.4C350.5,283.6,350.3,283.9,350,283.9C350,283.9,350,283.9,350,283.9
		L350,283.9z"></path><path class="st1" d="M358,274.7c-0.2,0-0.4-0.2-0.5-0.4c-0.1-0.3,0.1-0.6,0.4-0.7c27.7-8.2,57.4-24.1,55.8-29.8c-0.3-1.1-1-2-2-2.5
		c-3.7-1.9-10.5,0.5-10.6,0.5c-0.3,0.1-0.6,0-0.7-0.3c-0.1-0.3,0-0.6,0.3-0.7c0.3-0.1,7.3-2.6,11.4-0.5c1.3,0.6,2.2,1.8,2.6,3.2
		c2,7-30,23.2-56.6,31.1C358.1,274.7,358,274.7,358,274.7z"></path><path class="st1" d="M326,288.5c-0.2,0-0.3-0.1-0.4-0.2c-2.3-3-4.8-5.9-7.5-8.6c-1.1,0.1-5.3,0.1-13.7-1.3
		c-4.5-0.7-7.2-3.5-7.9-5.8c-0.5-1.3-0.2-2.7,0.8-3.7c0.8-0.8,2.9-1.8,7.4-0.1c10.8,4.1,21.3,18.2,21.8,18.8
		c0.2,0.2,0.1,0.6-0.1,0.7l0,0C326.2,288.5,326.1,288.5,326,288.5z M300.3,269c-0.8-0.1-1.7,0.2-2.3,0.7c-0.7,0.7-0.9,1.7-0.5,2.6
		c0.6,2.1,3.1,4.4,7.1,5.1c4.1,0.7,8.3,1.2,12.4,1.3c-3.7-3.6-8.2-7.2-12.7-8.9C303,269.3,301.7,269,300.3,269L300.3,269z"></path></g><g id="phone"><path class="st1" d="M83.9,110.7V428c0,6.3,5.1,11.4,11.4,11.4h185.2c6.3,0,11.4-5.1,11.4-11.4V110.7c0-6.3-5.1-11.4-11.4-11.4l0,0
		H95.2C88.9,99.4,83.9,104.4,83.9,110.7L83.9,110.7z"></path><path class="st1" d="M280.4,439.9H95.2c-6.6,0-11.9-5.3-11.9-11.9V110.7c0-6.6,5.3-11.9,11.9-11.9h185.2c6.6,0,11.9,5.3,11.9,11.9
		v0V428C292.3,434.6,287,439.9,280.4,439.9z M95.2,99.9c-6,0-10.8,4.9-10.8,10.8V428c0,6,4.9,10.8,10.8,10.9h185.2
		c6,0,10.9-4.9,10.9-10.9V110.7c0-6-4.9-10.8-10.8-10.8H95.2z"></path><path class="st0" d="M272,426.1H103.6c-4.3,0-7.8-3.5-7.8-7.8V120.4c0-4.3,3.5-7.8,7.8-7.8h37c2.5,0,4.9,1.2,6.3,3.3l3.5,4.9
		c1.5,2.1,3.9,3.4,6.5,3.3h61.7c2.6,0,5-1.2,6.5-3.3l3.5-4.9c1.5-2.1,3.8-3.3,6.3-3.3h37c4.3,0,7.8,3.5,7.8,7.8v297.9
		C279.7,422.6,276.2,426.1,272,426.1C272,426.1,272,426.1,272,426.1z"></path><path class="st1" d="M272,426.6H103.6c-4.6,0-8.3-3.7-8.3-8.3V120.4c0-4.6,3.7-8.3,8.3-8.3h37c2.7,0,5.2,1.3,6.8,3.5l3.5,4.9
		c1.4,2,3.6,3.2,6.1,3.2h61.7c2.4,0,4.7-1.2,6.1-3.2l3.5-4.9c1.6-2.2,4.1-3.5,6.8-3.5h37c4.6,0,8.3,3.7,8.3,8.3v297.9
		C280.2,422.9,276.5,426.6,272,426.6z M103.6,113.2c-4,0-7.2,3.2-7.2,7.2v297.9c0,4,3.2,7.2,7.2,7.2H272c4,0,7.2-3.2,7.2-7.2V120.4
		c0-4-3.2-7.2-7.2-7.2h-37c-2.3,0-4.5,1.1-5.9,3.1l-3.5,4.9c-1.6,2.2-4.2,3.6-6.9,3.6h-61.7c-2.8,0-5.3-1.3-6.9-3.6l-3.5-4.9
		c-1.4-1.9-3.6-3.1-5.9-3.1L103.6,113.2z"></path><path class="st1" d="M148.4,211.9h-23.8c-0.3,0-0.5-0.2-0.5-0.5v-23.8c0-0.3,0.2-0.5,0.5-0.5h23.8c0.3,0,0.5,0.2,0.5,0.5v23.8
		C149,211.6,148.7,211.9,148.4,211.9z M125.2,210.8h22.7v-22.7h-22.7L125.2,210.8z"></path><path class="st1" d="M139.5,203.5c-0.1,0-0.3-0.1-0.4-0.1l-8-7.6c-0.2-0.2-0.2-0.5,0-0.7c0,0,0,0,0,0c0.2-0.2,0.5-0.2,0.7,0
		c0,0,0,0,0,0l7.7,7.3l19.8-13.5c0.2-0.2,0.6-0.1,0.7,0.1c0.2,0.2,0.1,0.6-0.1,0.7c0,0,0,0,0,0l-20.1,13.7
		C139.7,203.5,139.6,203.5,139.5,203.5z"></path><path class="st1" d="M251.4,196.6h-77.1c-0.3,0-0.5-0.2-0.5-0.5c0-0.3,0.2-0.5,0.5-0.5h77.1c0.3,0,0.5,0.2,0.5,0.5
		C251.9,196.4,251.7,196.6,251.4,196.6z"></path><path class="st1" d="M213.2,207.4h-39c-0.3,0-0.5-0.2-0.5-0.5c0-0.3,0.2-0.5,0.5-0.5h39c0.3,0,0.5,0.2,0.5,0.5
		S213.5,207.4,213.2,207.4z"></path><path class="st1" d="M148.4,262.1h-23.8c-0.3,0-0.5-0.2-0.5-0.5v-23.8c0-0.3,0.2-0.5,0.5-0.5h23.8c0.3,0,0.5,0.2,0.5,0.5v23.8
		C149,261.9,148.7,262.1,148.4,262.1z M125.2,261h22.7v-22.7h-22.7L125.2,261z"></path><path class="st1" d="M139.5,253.7c-0.1,0-0.3-0.1-0.4-0.1l-8-7.6c-0.2-0.2-0.2-0.5,0-0.7c0,0,0,0,0,0c0.2-0.2,0.5-0.2,0.7,0
		c0,0,0,0,0,0l7.7,7.3l19.8-13.5c0.2-0.2,0.6-0.1,0.7,0.1c0.2,0.2,0.1,0.6-0.1,0.7l-20.1,13.7C139.7,253.7,139.6,253.7,139.5,253.7z
		"></path><path class="st1" d="M251.4,246.8h-77.1c-0.3,0-0.5-0.2-0.5-0.5c0-0.3,0.2-0.5,0.5-0.5h77.1c0.3,0,0.5,0.2,0.5,0.5
		C251.9,246.6,251.7,246.8,251.4,246.8z"></path><path class="st1" d="M213.2,257.6h-39c-0.3,0-0.5-0.2-0.5-0.5c0-0.3,0.2-0.5,0.5-0.5h39c0.3,0,0.5,0.2,0.5,0.5
		C213.8,257.4,213.5,257.6,213.2,257.6z"></path><path class="st1" d="M148.4,312.3h-23.8c-0.3,0-0.5-0.2-0.5-0.5V288c0-0.3,0.2-0.5,0.5-0.5h23.8c0.3,0,0.5,0.2,0.5,0.5v23.8
		C149,312.1,148.7,312.3,148.4,312.3z M125.2,311.3h22.7v-22.7h-22.7L125.2,311.3z"></path><path class="st1" d="M251.4,297.1h-77.1c-0.3,0-0.5-0.2-0.5-0.5c0-0.3,0.2-0.5,0.5-0.5h77.1c0.3,0,0.5,0.2,0.5,0.5
		C251.9,296.8,251.7,297.1,251.4,297.1z"></path><path class="st1" d="M213.2,307.8h-39c-0.3,0-0.5-0.2-0.5-0.5c0-0.3,0.2-0.5,0.5-0.5h39c0.3,0,0.5,0.2,0.5,0.5
		C213.8,307.6,213.5,307.8,213.2,307.8z"></path><path class="st1" d="M148.4,362.6h-23.8c-0.3,0-0.5-0.2-0.5-0.5v-23.8c0-0.3,0.2-0.5,0.5-0.5h23.8c0.3,0,0.5,0.2,0.5,0.5v23.8
		C148.9,362.4,148.7,362.6,148.4,362.6z M125.2,361.5h22.7v-22.7h-22.7L125.2,361.5z"></path><path class="st1" d="M251.4,347.3h-77.1c-0.3,0-0.5-0.2-0.5-0.5c0-0.3,0.2-0.5,0.5-0.5h77.1c0.3,0,0.5,0.2,0.5,0.5
		C251.9,347.1,251.7,347.3,251.4,347.3z"></path><path class="st1" d="M213.2,358.1h-39c-0.3,0-0.5-0.2-0.5-0.5c0-0.3,0.2-0.5,0.5-0.5h39c0.3,0,0.5,0.2,0.5,0.5
		S213.5,358.1,213.2,358.1z"></path></g><g id="heart"><path class="st2" d="M175.3,93.2c0,0,9.2-18.5,26.8-9.8c16.6,8.2,15.2,47.2-8.1,61.2c-2.5,1.5-5.3,2.2-8.1,2.1
		c-8.3-0.2-26.8-3-35.9-21.6C137.9,100.5,161.7,87.2,175.3,93.2z"></path><path class="st1" d="M186.3,147.2h-0.5c-7.8-0.2-27.1-2.8-36.4-21.9c-5.1-10.4-4.2-20.3,2.3-27.1c6-6.3,16-8.7,23.4-5.7
		c1.6-2.8,11-17.6,27.2-9.6c6.7,3.3,10.9,11.7,11.4,22.5c0.6,13.6-5.2,31.1-19.4,39.6C191.9,146.4,189.1,147.2,186.3,147.2z
		 M168.2,92.2c-5.9,0-11.5,2.4-15.7,6.6c-3.7,3.8-8.8,12.2-2.1,25.9c9.1,18.6,27.8,21.1,35.5,21.3c2.8,0.1,5.5-0.6,7.9-2
		c13.9-8.3,19.5-25.4,18.9-38.7c-0.4-10.4-4.5-18.5-10.8-21.6c-7.1-3.5-13.6-2.9-19.4,1.6c-2.7,2.2-5,4.9-6.7,8
		c-0.1,0.3-0.4,0.4-0.7,0.3C172.9,92.7,170.6,92.2,168.2,92.2L168.2,92.2z"></path><path class="st1" d="M201,69.9c-0.1,0-0.2,0-0.3-0.1c-0.2-0.2-0.3-0.5-0.1-0.7l16.5-25.2c0.2-0.2,0.5-0.3,0.7-0.1
		c0.2,0.2,0.3,0.4,0.1,0.7l-16.5,25.2C201.3,69.8,201.2,69.9,201,69.9z"></path><path class="st1" d="M174.2,73c-0.3,0-0.5-0.2-0.5-0.4l-6.3-35.8c0-0.3,0.1-0.6,0.4-0.6c0.3-0.1,0.6,0.1,0.6,0.4c0,0,0,0,0,0
		l6.3,35.8C174.8,72.7,174.6,73,174.2,73L174.2,73z"></path><path class="st1" d="M158.9,81.6c-0.1,0-0.3-0.1-0.3-0.1l-16.9-14.8c-0.2-0.2-0.3-0.5-0.1-0.7c0.2-0.2,0.5-0.3,0.7-0.1
		c0,0,0.1,0.1,0.1,0.1l16.9,14.8c0.2,0.2,0.2,0.5,0,0.8C159.2,81.5,159,81.6,158.9,81.6z"></path></g></svg>